<svg t="1644654509072" class="icon" viewBox="0 0 1024 1024" version="1.1" xmlns="http://www.w3.org/2000/svg" p-id="2234" width="200" height="200"><path d="M844 232.8a162 162 0 0 0-228.24 20l-269.88 321.68A18 18 0 0 0 348 600l220.64 185.12a17.96 17.96 0 0 0 25.32-2.2L864 461.04a162 162 0 0 0-20-228.24z" fill="#C93E4F" p-id="2235"></path><path d="M580.24 799.16a27.76 27.76 0 0 1-17.96-6.52l-220.64-185.12a28 28 0 0 1-3.44-39.44L608 246.32a172 172 0 1 1 263.52 221.12l-269.8 321.76a28 28 0 0 1-21.48 9.96zM740 204.96a151.72 151.72 0 0 0-116.52 54.24l-269.96 321.72a8 8 0 0 0 1 11.28l220.6 185.12a8 8 0 0 0 11.28-1l269.96-321.72A152 152 0 0 0 740 204.96z" fill="#600000" p-id="2236"></path><path d="M273.276563 604.998109m20.569204-24.513422l28.282655-33.705955q20.569204-24.513422 45.082625-3.944219l226.749156 190.265132q24.513422 20.569204 3.944218 45.082626l-28.282655 33.705956q-20.569204 24.513422-45.082625 3.944218l-226.749155-190.265132q-24.513422-20.569204-3.944219-45.082626Z" fill="#FFFFFF" p-id="2237"></path><path d="M545.04 833.32a41.72 41.72 0 0 1-26.92-9.84L291.36 633.2a42.04 42.04 0 0 1-5.16-59.16l28.28-33.72a41.96 41.96 0 0 1 59.16-5.16l226.76 190.28a41.96 41.96 0 0 1 5.16 59.16l-28.28 33.72a41.88 41.88 0 0 1-28.48 14.84c-1.28 0.08-2.52 0.16-3.76 0.16z m-198.36-288h-1.96a21.8 21.8 0 0 0-14.92 8l-28.28 33.68a22 22 0 0 0 2.72 31l226.76 190a22 22 0 0 0 30.96-2.72l28.28-33.72a21.68 21.68 0 0 0 5.08-16 21.92 21.92 0 0 0-7.76-14.92L360.8 550.48a21.88 21.88 0 0 0-14.12-5.16z" fill="#600000" p-id="2238"></path><path d="M464.2 710.36m-56 0a56 56 0 1 0 112 0 56 56 0 1 0-112 0Z" fill="#F4C95E" p-id="2239"></path><path d="M464 776.32a65.96 65.96 0 1 1 50.6-23.52 65.64 65.64 0 0 1-50.6 23.52z m0-112a45.92 45.92 0 1 0 29.56 10.72 45.8 45.8 0 0 0-29.32-10.64z" fill="#600000" p-id="2240"></path><path d="M580.08 379.4m-12 0a12 12 0 1 0 24 0 12 12 0 1 0-24 0Z" fill="#FFFFFF" p-id="2241"></path><path d="M610.4 498.84m-12 0a12 12 0 1 0 24 0 12 12 0 1 0-24 0Z" fill="#FFFFFF" p-id="2242"></path><path d="M533.8 434.56m-12 0a12 12 0 1 0 24 0 12 12 0 1 0-24 0Z" fill="#FFFFFF" p-id="2243"></path><path d="M631.64 579.32m-12 0a12 12 0 1 0 24 0 12 12 0 1 0-24 0Z" fill="#FFFFFF" p-id="2244"></path><path d="M536.52 530.84m-12 0a12 12 0 1 0 24 0 12 12 0 1 0-24 0Z" fill="#FFFFFF" p-id="2245"></path><path d="M675.04 459.12m-12 0a12 12 0 1 0 24 0 12 12 0 1 0-24 0Z" fill="#FFFFFF" p-id="2246"></path><path d="M457.76 506.52m-12 0a12 12 0 1 0 24 0 12 12 0 1 0-24 0Z" fill="#FFFFFF" p-id="2247"></path><path d="M545 595.4m-12 0a12 12 0 1 0 24 0 12 12 0 1 0-24 0Z" fill="#FFFFFF" p-id="2248"></path><path d="M616.96 671.44m-12 0a12 12 0 1 0 24 0 12 12 0 1 0-24 0Z" fill="#FFFFFF" p-id="2249"></path><path d="M711.28 646.16m-12 0a12 12 0 1 0 24 0 12 12 0 1 0-24 0Z" fill="#FFFFFF" p-id="2250"></path><path d="M717.24 551.96m-12 0a12 12 0 1 0 24 0 12 12 0 1 0-24 0Z" fill="#FFFFFF" p-id="2251"></path><path d="M220.68 576.36l44.4 13.28L171.08 508a162 162 0 0 1 212.6-244.6l316.96 275.56a18 18 0 0 1 1.76 25.4l-188.92 217.36a18.04 18.04 0 0 1-25.4 1.76l-17.36-15.08-6.04 3.16a17.88 17.88 0 0 1-14.48 0.92l-252-91.72a59.28 59.28 0 0 1-36.92-71.32 38.68 38.68 0 0 1 1.52-4.6 47.52 47.52 0 0 1 57.88-28.48z" fill="#C93E4F" p-id="2252"></path><path d="M500 797.88a28 28 0 0 1-18.36-6.84l-12-10.64a28 28 0 0 1-22.52 1.48l-252-91.72a69.72 69.72 0 0 1-43.16-83.32c0.52-1.88 1.16-3.76 1.84-5.6a57.8 57.8 0 0 1 70.16-34.44l-59.44-51.32A172 172 0 1 1 390.24 256l316.96 275.52a28 28 0 0 1 2.76 39.52l-188.96 217.36a28 28 0 0 1-21 9.48z m-28-41.52l22.48 19.56a8 8 0 0 0 11.28-0.76l188.96-217.36a8 8 0 0 0-0.8-11.32L377.08 270.96a152 152 0 0 0-199.44 229.44l94 81.68-9.44 17.12-44.36-13.24A37.68 37.68 0 0 0 172 608.44a29.8 29.8 0 0 0-1.2 3.64 49.6 49.6 0 0 0 30.68 59.28l252 91.72a8 8 0 0 0 6.44-0.4z" fill="#600000" p-id="2253"></path><path d="M447.488776 790.570639m20.993889-24.150706l194.193472-223.394036q20.993889-24.150707 45.144596-3.156818l33.207221 28.866598q24.150707 20.993889 3.156818 45.144595l-194.193473 223.394036q-20.993889 24.150707-45.144595 3.156817l-33.207222-28.866597q-24.150707-20.993889-3.156817-45.144595Z" fill="#FFFFFF" p-id="2254"></path><path d="M525.8 858.28a42 42 0 0 1-27.56-10.28l-33.2-28.88a42.04 42.04 0 0 1-4-59.28l194.2-223.36a42.04 42.04 0 0 1 59.24-4l33.2 28.88a42.08 42.08 0 0 1 4 59.24L557.52 844a42.08 42.08 0 0 1-31.72 14.28z m161.04-316.28h-1.56a21.76 21.76 0 0 0-15.08 7.52L476 773a21.92 21.92 0 0 0 2.16 31l33.2 28.88a22.04 22.04 0 0 0 31.04-2.16l194.2-223.4a22.04 22.04 0 0 0-2.16-31.04l-33.2-28.88a22.04 22.04 0 0 0-14.4-5.4z" fill="#600000" p-id="2255"></path><path d="M605 691.68m-56 0a56 56 0 1 0 112 0 56 56 0 1 0-112 0Z" fill="#F4C95E" p-id="2256"></path><path d="M604.96 757.64a65.96 65.96 0 0 1-49.8-109.28 66 66 0 1 1 49.8 109.28z m-34.68-96a46 46 0 1 0 80.6 26.96 46 46 0 0 0-80.6-26.96z" fill="#600000" p-id="2257"></path><path d="M212 674.84l20-85.28-9.32-3.24A41.32 41.32 0 0 0 170 612a4 4 0 0 1 0 0.64l-0.28 0.92a44 44 0 0 0 25.2 54.44z" fill="#FB5957" p-id="2258"></path><path d="M438.8 382.88m-12 0a12 12 0 1 0 24 0 12 12 0 1 0-24 0Z" fill="#FFFFFF" p-id="2259"></path><path d="M427.52 505.6m-12 0a12 12 0 1 0 24 0 12 12 0 1 0-24 0Z" fill="#FFFFFF" p-id="2260"></path><path d="M493.12 430.12m-12 0a12 12 0 1 0 24 0 12 12 0 1 0-24 0Z" fill="#FFFFFF" p-id="2261"></path><path d="M419.16 588.4m-12 0a12 12 0 1 0 24 0 12 12 0 1 0-24 0Z" fill="#FFFFFF" p-id="2262"></path><path d="M505.48 525.68m-12 0a12 12 0 1 0 24 0 12 12 0 1 0-24 0Z" fill="#FFFFFF" p-id="2263"></path><path d="M357.44 476.48m-12 0a12 12 0 1 0 24 0 12 12 0 1 0-24 0Z" fill="#FFFFFF" p-id="2264"></path><path d="M579.52 489.28m-12 0a12 12 0 1 0 24 0 12 12 0 1 0-24 0Z" fill="#FFFFFF" p-id="2265"></path><path d="M507.2 590.76m-12 0a12 12 0 1 0 24 0 12 12 0 1 0-24 0Z" fill="#FFFFFF" p-id="2266"></path><path d="M448.04 677.12m-12 0a12 12 0 1 0 24 0 12 12 0 1 0-24 0Z" fill="#FFFFFF" p-id="2267"></path><path d="M350.92 666.88m-12 0a12 12 0 1 0 24 0 12 12 0 1 0-24 0Z" fill="#FFFFFF" p-id="2268"></path><path d="M330.28 574.76m-12 0a12 12 0 1 0 24 0 12 12 0 1 0-24 0Z" fill="#FFFFFF" p-id="2269"></path></svg>